<?xml version="1.0" standalone="no"?>
<!DOCTYPE svg PUBLIC "-//W3C//DTD SVG 20010904//EN"
 "http://www.w3.org/TR/2001/REC-SVG-20010904/DTD/svg10.dtd">
<svg version="1.0" xmlns="http://www.w3.org/2000/svg"
 width="1254.000000pt" height="1254.000000pt" viewBox="0 0 1254.000000 1254.000000"
 preserveAspectRatio="xMidYMid meet">
<metadata>
Created by potrace 1.14, written by Peter Selinger 2001-2017
</metadata>
<g transform="translate(0.000000,1254.000000) scale(0.100000,-0.100000)"
fill="#000000" stroke="none">
<path d="M7775 12463 c-135 -158 -299 -427 -412 -675 -265 -584 -468 -1285
-567 -1953 -34 -234 -46 -374 -46 -553 l0 -152 -102 83 c-367 299 -780 500
-1229 601 -238 53 -361 68 -619 73 -260 6 -404 -4 -589 -39 l-105 -19 -80 88
c-229 253 -528 502 -901 750 -154 102 -724 426 -919 521 -408 199 -782 337
-1250 461 -207 55 -297 74 -435 91 -96 11 -180 19 -187 16 -27 -10 -13 -44 73
-171 460 -681 1148 -1310 1983 -1812 170 -103 436 -241 570 -296 110 -45 319
-112 395 -127 33 -6 66 -13 73 -16 9 -2 -9 -32 -51 -86 -93 -120 -355 -637
-432 -853 -79 -220 -137 -331 -280 -535 -141 -202 -159 -234 -187 -338 -24
-90 -29 -333 -10 -442 18 -97 73 -333 82 -351 5 -9 32 -79 60 -155 29 -76 90
-217 136 -313 46 -96 83 -175 82 -177 -2 -1 -55 2 -118 7 -330 28 -679 -51
-894 -205 -75 -53 -177 -160 -230 -240 -88 -133 -133 -302 -122 -461 25 -380
328 -748 713 -865 l71 -21 -48 -142 c-26 -78 -201 -585 -388 -1127 -187 -542
-348 -1021 -358 -1065 -28 -118 -25 -350 4 -460 45 -166 149 -332 267 -429
l55 -44 -68 -22 c-37 -13 -159 -65 -271 -116 -341 -157 -511 -290 -449 -352 8
-8 8 -15 -1 -26 -32 -38 18 -84 106 -97 32 -4 81 -13 108 -18 82 -16 624 47
1080 125 209 36 398 73 420 83 82 36 135 102 135 165 0 18 6 27 23 30 12 3
218 21 457 41 l435 37 699 -131 c385 -72 788 -143 897 -158 l197 -27 4 -53 c5
-57 29 -92 81 -119 15 -8 179 -46 365 -84 403 -82 509 -107 667 -155 307 -94
416 -125 494 -139 80 -15 145 -13 156 4 3 5 23 11 45 15 22 4 51 16 64 26 23
18 25 26 22 87 -1 37 -8 77 -14 88 -58 109 -564 430 -857 544 -33 13 -62 25
-64 26 -2 2 22 31 54 66 214 237 249 540 119 1016 -19 69 -33 126 -31 128 1 2
139 -37 307 -86 208 -61 309 -86 320 -80 14 7 21 74 50 457 18 246 34 449 35
451 1 1 106 -29 233 -68 127 -38 238 -67 246 -64 8 3 167 266 352 585 186 318
344 579 351 579 7 0 480 -137 1050 -305 571 -168 1049 -305 1064 -303 19 2 88
71 268 263 133 143 481 496 773 785 491 486 530 527 520 547 -13 24 -199 121
-382 201 -540 233 -1401 474 -2155 602 -194 33 -323 47 -825 86 -327 26 -597
49 -599 51 -8 6 28 73 39 73 6 0 43 -9 82 -20 40 -11 83 -20 95 -20 41 0 51
50 27 138 -5 18 -2 22 18 22 14 0 35 11 48 25 23 24 24 58 5 106 -5 13 2 20
30 29 22 7 44 24 55 42 18 30 18 32 -6 86 -13 30 -24 56 -24 58 0 2 15 4 33 4
36 0 77 24 77 45 0 26 -79 111 -169 180 -49 39 -90 77 -91 86 0 8 7 37 16 62
20 60 13 91 -26 107 -36 15 -375 -1 -550 -25 -285 -41 -534 -118 -759 -236
-52 -27 -95 -48 -96 -47 -6 8 18 288 35 408 10 76 63 338 116 582 l96 443 -3
190 -4 190 57 91 c199 320 348 733 472 1307 114 524 166 904 197 1420 15 260
7 810 -15 967 -31 223 -60 344 -107 448 -38 84 -51 82 -134 -15z m-176 -8205
c-90 -436 -164 -795 -165 -797 -2 -2 -166 27 -365 63 -199 37 -365 63 -369 59
-4 -4 22 -262 56 -573 35 -311 62 -568 61 -572 -2 -7 -337 97 -348 109 -4 5
-17 53 -28 108 -53 262 -60 465 -32 885 29 439 23 405 85 443 86 52 266 176
351 240 263 199 612 514 796 718 63 69 115 122 117 118 2 -5 -70 -365 -159
-801z"/>
</g>
</svg>
